Coordinates
version=1
nRows=15
nColumns=34
inDegrees=yes

Units are S.I. units (second, meters, Newtons, ...)
If the header above contains a line with 'inDegrees', this indicates whether rotational values are in degrees (yes) or radians (no).

endheader
time	pelvis_tilt	pelvis_list	pelvis_rotation	pelvis_tx	pelvis_ty	pelvis_tz	hip_flexion_r	hip_adduction_r	hip_rotation_r	knee_angle_r	ankle_angle_r	subtalar_angle_r	mtp_angle_r	hip_flexion_l	hip_adduction_l	hip_rotation_l	knee_angle_l	ankle_angle_l	subtalar_angle_l	mtp_angle_l	lumbar_extension	lumbar_bending	lumbar_rotation	arm_flex_r	arm_add_r	arm_rot_r	elbow_flex_r	pro_sup_r	arm_flex_l	arm_add_l	arm_rot_l	elbow_flex_l	pro_sup_l
      3.73333330	    -17.16272517	     -0.12925343	      0.10570323	      0.63509855	      1.11356147	     -0.09657716	     31.13464982	     -9.50427748	    -18.61092517	     23.51068404	      9.14739474	    -11.88235389	      0.00000000	     33.82102477	     -8.03483257	    -12.64070470	     24.59468439	      4.90794664	    -10.95831505	      0.00000000	     -9.89685942	     -0.12846484	     -3.00238657	     96.27177248	     -0.47264291	     43.72571170	     44.21828535	     64.54617477	     95.36388083	     -3.38764144	     49.20059713	     44.40990984	     20.44129679
      3.75000000	    -16.09684496	     -0.22379833	     -0.53085474	      0.64026041	      1.11642190	     -0.09152420	     28.57135891	     -8.46320942	    -18.23678171	     20.86830079	      9.02888105	    -11.19000487	      0.00000000	     31.40107779	     -8.32329324	    -13.20990947	     22.92235373	      4.11627287	    -11.74774952	      0.00000000	     -9.00197910	     -0.27995707	     -3.19373740	     90.38926512	     -2.64339552	     41.29619862	     52.84651663	     65.46910653	     92.55945305	     -4.76562374	     48.82810252	     46.26440919	     20.71206547
      3.76666670	    -15.76920331	     -0.24669744	     -0.95968320	      0.64719603	      1.11815838	     -0.09605613	     26.71244299	     -7.88727815	    -18.25051170	     18.24635900	      8.43332824	    -10.80020387	      0.00000000	     29.93354833	     -8.24484001	    -13.58614214	     21.74537061	      3.83214701	    -11.96899172	      0.00000000	     -7.95525289	     -0.40916591	     -2.84785901	     88.99843938	     -2.36898068	     41.51683561	     52.55447431	     65.60257558	     91.14490488	     -4.64511115	     49.14973399	     45.79228191	     20.73081511
      3.78333330	    -14.94885548	     -0.33591201	     -1.13646931	      0.64506931	      1.12025239	     -0.09535878	     24.55205384	     -7.38490903	    -18.53048690	     15.74207394	      7.57524051	    -10.52455373	      0.00000000	     28.55933021	     -8.20035468	    -13.68906838	     21.03379023	      3.27191925	    -12.72330697	      0.00000000	     -8.12121487	     -0.32936399	     -2.25095865	     88.83495310	     -2.12683681	     40.37166632	     50.61578041	     66.15426683	     91.36281538	     -3.42128479	     49.00762344	     43.34574167	     20.79175043
      3.80000000	    -14.43793600	     -0.55133041	     -0.68671945	      0.65305245	      1.12298865	     -0.09274958	     22.85802174	     -6.87347043	    -18.61155290	     13.77361859	      7.20038959	    -10.41344372	      0.00000000	     27.26106959	     -8.08504809	    -13.47049594	     20.01198222	      2.19769346	    -12.83559090	      0.00000000	     -7.53141473	     -0.08756911	     -2.04746309	     87.10374253	     -2.66750787	     38.85776052	     50.39761366	     66.58037810	     90.49314840	     -2.42306377	     48.52512097	     43.03475053	     20.90265875
      3.81666670	    -13.99832837	     -0.89222005	      0.00277905	      0.66093353	      1.12513521	     -0.09692839	     21.33919735	     -6.51103245	    -18.76807604	     12.42578521	      7.03681910	    -10.51047731	      0.00000000	     26.40968412	     -7.96135939	    -12.76699393	     19.61249210	      1.72527786	    -12.89410944	      0.00000000	     -6.83499483	      0.20796986	     -1.60582670	     85.39315976	     -3.53225621	     37.21168762	     50.44141963	     66.91436153	     88.81847457	     -1.06186978	     47.14718034	     44.04751130	     21.17599521
      3.83333330	    -13.09044071	     -1.13900405	      0.95308973	      0.66934510	      1.13093433	     -0.09524458	     19.11535306	     -6.18020714	    -19.18049606	     11.02300009	      6.63508666	    -10.58768985	      0.00000000	     24.70302205	     -7.77591427	    -12.22065337	     18.53064042	      1.11109576	    -12.42851001	      0.00000000	     -6.39717554	      0.28685187	     -1.65213286	     83.08816886	     -4.16383363	     35.61332766	     50.97406213	     67.15577455	     86.56328741	     -0.41015050	     45.86258799	     45.44630124	     21.65570282
      3.85000000	    -12.58754665	     -1.33441841	      1.64844459	      0.66790331	      1.13515621	     -0.09488650	     17.74089172	     -5.84313439	    -19.59509926	      9.85384062	      6.40681173	    -10.76017802	      0.00000000	     23.67624558	     -7.67724999	    -11.45209818	     17.65811749	      1.26618506	    -11.69503996	      0.00000000	     -6.14105930	      0.26933924	     -1.58031665	     81.57503928	     -4.57059448	     34.21437115	     50.76634297	     67.35842707	     85.07856090	      0.32200646	     45.08522941	     46.42044672	     22.28896189
      3.86666670	    -11.93488695	     -1.54063133	      2.58860702	      0.66615342	      1.13609092	     -0.09657954	     16.23221192	     -5.54185589	    -20.18178375	      8.48763612	      5.57689945	    -10.98445001	      0.00000000	     22.44247496	     -7.38552915	    -10.51959317	     16.02947804	      0.94061584	    -11.02802214	      0.00000000	     -6.25882147	      0.41216352	     -2.43824160	     80.43453565	     -4.49964572	     33.44214668	     51.37306294	     67.50258685	     84.18574954	      0.43162012	     44.66847360	     46.80775374	     22.70260430
      3.88333330	    -11.26251784	     -1.39566253	      2.89037577	      0.67391444	      1.14125537	     -0.09991112	     14.76187509	     -5.53112060	    -20.89606579	      7.28612197	      4.63373161	    -10.87636267	      0.00000000	     20.66649777	     -6.87007619	    -10.17456939	     14.06951328	      0.90831665	    -10.08153930	      0.00000000	     -6.35541242	      0.26795873	     -3.10510902	     78.02051392	     -4.31747635	     31.54829560	     52.70732605	     67.71471837	     82.84538091	      0.13920073	     43.69165361	     47.79847917	     23.40726079
      3.90000000	    -10.42688144	     -1.39654161	      3.39915674	      0.68200577	      1.13927364	     -0.10532818	     13.20277566	     -5.57094608	    -21.69607185	      6.60732695	      3.42163649	    -11.36858713	      0.00000000	     18.71305044	     -6.36182848	     -9.44685859	     12.08918034	      0.81596933	     -9.40343381	      0.00000000	     -6.29253422	      0.48144075	     -3.94608240	     75.47823184	     -4.59029270	     30.27123481	     55.19672161	     67.95779294	     81.07466949	     -0.29040772	     42.61382821	     49.11606979	     24.00763856
      3.91666670	     -9.50947441	     -1.17361348	      3.93494006	      0.69921966	      1.14182187	     -0.10520391	     10.97097551	     -5.71342890	    -22.70928315	      5.73868401	      2.87456400	    -10.78702429	      0.00000000	     16.50815874	     -5.81465443	     -9.23105920	     10.36328798	      0.81821527	     -8.60938475	      0.00000000	     -5.94727540	      0.23257424	     -3.96147838	     71.96284862	     -5.65063086	     28.47726605	     57.95554772	     68.17262033	     78.24178535	     -0.22810664	     41.52721541	     51.22583742	     24.69104033
      3.93333330	     -8.38414640	     -0.83738976	      4.09510134	      0.71595691	      1.14473425	     -0.10594791	      8.48033436	     -5.85480649	    -23.51158478	      4.98474752	      2.66495515	    -10.13275769	      0.00000000	     13.64288721	     -5.34535778	     -9.69215722	      8.70934021	      0.88191687	     -8.02474491	      0.00000000	     -5.43427815	      0.01560058	     -3.57923757	     67.51873131	     -6.43586426	     26.34547292	     61.12569431	     68.48250690	     75.09957674	      0.05036503	     40.22037289	     52.54483592	     25.46553827
      3.95000000	     -7.41693654	     -0.61480805	      3.99527608	      0.72437197	      1.14259781	     -0.10900869	      6.49452864	     -5.93689337	    -23.67872432	      4.53929158	      2.84530262	     -9.86459043	      0.00000000	     11.02109730	     -5.01100166	     -9.67328502	      7.44195955	      1.71154019	     -7.45097066	      0.00000000	     -4.64277858	     -0.00500959	     -3.60993391	     63.94585576	     -7.31750978	     25.01025279	     63.33178708	     68.92976353	     72.63625329	      0.19464808	     39.00032362	     52.81661183	     26.30808013
      3.96666670	     -6.36156408	     -0.44276095	      3.57595021	      0.73177688	      1.14545459	     -0.10520717	      4.60187095	     -5.85719477	    -23.13033871	      4.18141649	      2.89923534	    -10.10295741	      0.00000000	      8.35276935	     -4.80989054	     -9.66112735	      6.26633990	      2.26487699	     -7.36017229	      0.00000000	     -3.77756729	     -0.07142278	     -4.06696860	     58.58551779	     -7.97527441	     23.93381955	     67.65446922	     69.46070588	     69.61967778	     -0.84950360	     38.18003766	     54.15629940	     27.15044358
